<svg width="600" height="871" viewBox="0 0 600 871" fill="none" xmlns="http://www.w3.org/2000/svg">
<path d="M292.031 807.788C291.246 808.128 290.559 808.659 290.032 809.334L290.651 808.939C291.072 808.551 291.668 808.094 292.031 807.788Z" fill="#0D0C22"/>
<path d="M320.964 402.359C289.765 415.752 254.358 430.938 208.471 430.938C189.275 430.9 170.172 428.259 151.682 423.087L183.418 749.835C184.542 763.489 190.746 776.224 200.799 785.506C210.852 794.788 224.018 799.936 237.684 799.936C237.684 799.936 282.683 802.279 297.699 802.279C313.859 802.279 362.317 799.936 362.317 799.936C375.98 799.936 389.144 794.781 399.194 785.499C409.245 776.217 415.448 763.489 416.571 749.835L450.562 388.766C435.372 383.564 420.041 380.107 402.759 380.107C372.869 380.096 348.785 390.419 320.964 402.359Z" fill="#FFDD00"/>
<path d="M597.324 232.799L592.545 208.626C588.256 186.936 578.523 166.442 556.321 158.603C549.205 156.095 541.13 155.018 535.673 149.827C530.217 144.636 528.604 136.574 527.342 129.098C525.005 115.377 522.808 101.644 520.412 87.9463C518.345 76.1698 516.709 62.9409 511.322 52.1373C504.311 37.6309 489.763 29.1474 475.296 23.5347C467.884 20.7599 460.319 18.4125 452.639 16.5042C416.497 6.94259 378.497 3.42731 341.315 1.42361C296.687 -1.04586 251.939 -0.301842 207.416 3.64994C174.277 6.67307 139.373 10.329 107.882 21.8239C96.3727 26.0305 84.512 31.0807 75.7603 39.9979C65.0214 50.9538 61.5159 67.8974 69.3563 81.5599C74.9304 91.2621 84.3721 98.117 94.3863 102.652C107.43 108.495 121.052 112.941 135.027 115.916C173.938 124.54 214.24 127.926 253.992 129.368C298.053 131.151 342.184 129.706 386.034 125.044C396.878 123.849 407.702 122.415 418.507 120.744C431.232 118.787 439.4 102.101 435.649 90.4769C431.162 76.5804 419.103 71.1903 405.467 73.2878C403.457 73.6038 401.459 73.8966 399.448 74.1894L398 74.4005C393.38 74.9869 388.761 75.5331 384.141 76.0411C374.598 77.0721 365.032 77.9159 355.443 78.5723C333.965 80.0719 312.43 80.7631 290.906 80.7985C269.756 80.7985 248.594 80.2006 227.491 78.8066C217.862 78.174 208.257 77.369 198.675 76.3925C194.317 75.9355 189.97 75.4554 185.624 74.9161L181.486 74.389L180.587 74.2603L176.299 73.6392C167.535 72.3146 158.771 70.7919 150.101 68.9519C149.226 68.7571 148.443 68.2695 147.882 67.5683C147.321 66.8674 147.015 65.9956 147.015 65.0969C147.015 64.1982 147.321 63.3264 147.882 62.6255C148.443 61.9246 149.226 61.4365 150.101 61.2418H150.264C157.778 59.6365 165.349 58.2656 172.945 57.0703C175.477 56.672 178.016 56.2814 180.563 55.8986H180.633C185.389 55.5822 190.169 54.7268 194.901 54.1644C236.075 49.8697 277.494 48.4055 318.869 49.782C338.955 50.3679 359.03 51.5514 379.023 53.5902C383.323 54.0355 387.6 54.5043 391.876 55.0315C393.512 55.2308 395.16 55.465 396.808 55.6643L400.126 56.1447C409.802 57.5899 419.426 59.3436 429 61.4059C443.186 64.4994 461.403 65.507 467.713 81.0914C469.723 86.0361 470.634 91.5318 471.744 96.7223L473.158 103.343C473.195 103.462 473.222 103.583 473.24 103.706C476.582 119.329 479.928 134.953 483.277 150.576C483.523 151.731 483.529 152.923 483.294 154.08C483.06 155.237 482.591 156.332 481.915 157.299C481.24 158.265 480.373 159.081 479.369 159.697C478.365 160.313 477.245 160.714 476.079 160.877H475.986L473.941 161.158L471.92 161.427C465.516 162.263 459.105 163.044 452.686 163.771C440.042 165.216 427.38 166.466 414.698 167.52C389.497 169.621 364.245 171 338.943 171.657C326.051 172 313.162 172.161 300.277 172.137C248.991 172.097 197.75 169.107 146.806 163.184C141.29 162.529 135.775 161.825 130.259 161.111C134.536 161.662 127.151 160.689 125.655 160.478C122.15 159.986 118.644 159.474 115.139 158.943C103.372 157.173 91.6753 154.994 79.9314 153.084C65.7342 150.741 52.1561 151.913 39.3142 158.943C28.7729 164.728 20.2412 173.598 14.8573 184.37C9.31856 195.853 7.67097 208.356 5.19375 220.695C2.71651 233.033 -1.13958 246.309 0.32105 258.976C3.46434 286.313 22.5227 308.53 49.9359 313.498C75.725 318.185 101.654 321.981 127.653 325.215C229.785 337.759 332.964 339.259 435.416 329.692C443.758 328.91 452.09 328.059 460.41 327.137C463.009 326.851 465.638 327.151 468.106 328.016C470.574 328.88 472.818 330.288 474.673 332.135C476.528 333.982 477.948 336.222 478.828 338.69C479.709 341.158 480.027 343.793 479.76 346.401L477.166 371.687C471.939 422.784 466.712 473.876 461.485 524.965C456.032 578.616 450.543 632.263 445.02 685.903C443.462 701.014 441.904 716.119 440.347 731.216C438.851 746.089 438.641 761.425 435.824 776.121C431.384 799.228 415.784 813.42 393.022 818.609C372.168 823.369 350.864 825.868 329.478 826.059C305.769 826.188 282.072 825.133 258.363 825.262C233.053 825.405 202.053 823.063 182.515 804.172C165.349 787.583 162.977 761.602 160.64 739.136C157.525 709.397 154.436 679.664 151.374 649.933L134.197 484.609L123.085 377.64C122.897 375.871 122.711 374.125 122.535 372.343C121.203 359.583 112.194 347.092 97.9964 347.737C85.8444 348.275 72.0327 358.634 73.4581 372.343L81.6957 451.648L98.7326 615.694C103.586 662.291 108.428 708.893 113.257 755.508C114.193 764.435 115.069 773.391 116.05 782.318C121.39 831.112 158.549 857.406 204.565 864.808C231.44 869.146 258.97 870.038 286.243 870.481C321.205 871.046 356.518 872.394 390.907 866.041C441.866 856.663 480.099 822.545 485.556 769.618C487.114 754.336 488.672 739.055 490.23 723.766C495.41 673.208 500.583 622.647 505.748 572.081L522.645 406.864L530.392 331.145C530.778 327.39 532.359 323.859 534.901 321.076C537.443 318.293 540.812 316.404 544.507 315.689C559.078 312.842 573.008 307.979 583.372 296.859C599.871 279.154 603.155 256.07 597.324 232.799ZM49.1881 249.133C49.4101 249.028 49.0011 250.937 48.8259 251.828C48.7908 250.48 48.8609 249.285 49.1881 249.133ZM50.602 260.101C50.7189 260.019 51.0694 260.488 51.4316 261.05C50.8824 260.534 50.5319 260.148 50.5903 260.101H50.602ZM51.9926 261.94C52.7638 263.335 52.495 262.796 51.9926 261.94ZM54.7853 264.213H54.8553C54.8553 264.296 54.9839 264.378 55.0306 264.46C54.9531 264.369 54.8671 264.287 54.7736 264.213H54.7853ZM543.83 260.815C538.595 265.807 530.707 268.127 522.913 269.288C435.509 282.294 346.831 288.879 258.468 285.973C195.228 283.806 132.655 276.763 70.0462 267.893C63.9113 267.026 57.2625 265.901 53.0442 261.366C45.0983 252.812 49.0011 235.588 51.0694 225.253C52.9624 215.785 56.5848 203.165 67.8141 201.818C85.3419 199.756 105.697 207.172 123.038 209.809C143.915 213.004 164.871 215.562 185.903 217.484C275.668 225.687 366.941 224.409 456.308 212.411C472.597 210.215 488.828 207.665 505 204.759C519.408 202.169 535.381 197.307 544.087 212.27C550.058 222.464 550.852 236.103 549.929 247.622C549.645 252.64 547.458 257.36 543.818 260.815H543.83Z" fill="white"/>
</svg>
